{"title":"Seeking Justice 2011 DVDrip English Klam","uid":7110514,"size":2000066033,"categoryP":"video","categoryS":"movies","magnet":"?xt=urn:btih:43797b95f18d806e70b255ee45bbff4541a81125&amp;dn=Seeking+Justice+2011+DVDrip+English+Klam&amp;tr=udp%3A%2F%2Ftracker.openbittorrent.com%3A80&amp;tr=udp%3A%2F%2Fopen.demonii.com%3A1337&amp;tr=udp%3A%2F%2Ftracker.coppersurfer.tk%3A6969&amp;tr=udp%3A%2F%2Fexodus.desync.com%3A6969","seeders":0,"leechers":0,"uploader":"Klambake","files":-1,"time":1332018677,"description":"With: Nicolas Cage, Guy Pearce en January Jones\n\nWanneer de vrouw van Nick Gerard (Nicolas Cage) slachtoffer is geworden van een ernstige misdaad, besluit hij aan te kloppen bij een organisatie in de onderwereld. Met behulp van hun diensten wil hij wraak nemen op de daders.\n\nAfter his wife is assaulted, a husband enlists the services of a vigilante group to help him settle the score. Then he discovers they want a 'favor' from him in return. \n\n------------------------ Dutch Friends ------------------------\n---------------------------------------------------------------\n- Bezoek ook eens mijn vrienden op: &lt;a href=&quot; http://www.Film-Test.nl&quot; rel=&quot;nofollow&quot; target=&quot;_NEW&quot;&gt; http://www.Film-Test.nl&lt;/a&gt; --\n----- voor mijn Nederlandse Sync. ondertitels ---- en meer ----\n------- http://www.Film-Test.nl ---- voor Films en meer -------\n---------------------------------------------------------------\n\nGeneral:\n\nComplete name                    : Seeking JusticeSeeking Justice.avi\nFormat                           : AVI\nFormat/Info                      : Audio Video Interleave\nFile size                        : 1.86 GiB\nDuration                         : 1h 44mn\nOverall bit rate                 : 2 544 Kbps\n\nVideo:\n\nFormat                           : MPEG-4 Visual\nFormat profile                   : Simple@L3\nFormat settings, BVOP            : No\nFormat settings, QPel            : No\nFormat settings, GMC             : No warppoints\nFormat settings, Matrix          : Default (H.263)\nCodec ID                         : XVID\nCodec ID/Hint                    : XviD\nDuration                         : 1h 44mn\nBit rate                         : 2 148 Kbps\nWidth                            : 720 pixels\nHeight                           : 304 pixels\nDisplay aspect ratio             : 2.35:1\nFrame rate                       : 29.970 fps\nColor space                      : YUV\nChroma subsampling               : 4:2:0\nBit depth                        : 8 bits\nScan type                        : Progressive\nCompression mode                 : Lossy\nBits/(Pixel*Frame)               : 0.327\nStream size                      : 1.57 GiB (84%)\nWriting library                  : XviD 1.1.2 (UTC 2006-11-01)\n\nAudio:\n\nFormat                           : AC-3\nFormat/Info                      : Audio Coding 3\nMode extension                   : CM (complete main)\nCodec ID                         : 2000\nDuration                         : 1h 44mn\nBit rate mode                    : Constant\nBit rate                         : 384 Kbps\nChannel(s)                       : 6 channels\nChannel positions                : Front: L C R, Side: L R, LFE\nSampling rate                    : 48.0 KHz\nBit depth                        : 16 bits\nCompression mode                 : Lossy\nStream size                      : 288 MiB (15%)\nAlignment                        : Aligned on interleaves\nInterleave, duration             : 32 ms (0.96 video frame)\nInterleave, preload duration     : 288 ms\n\n","torrent":{"xt":"urn:btih:43797b95f18d806e70b255ee45bbff4541a81125","amp;dn":"Seeking+Justice+2011+DVDrip+English+Klam","amp;tr":["udp%3A%2F%2Ftracker.openbittorrent.com%3A80","udp%3A%2F%2Fopen.demonii.com%3A1337","udp%3A%2F%2Ftracker.coppersurfer.tk%3A6969","udp%3A%2F%2Fexodus.desync.com%3A6969"],"infoHash":"43797b95f18d806e70b255ee45bbff4541a81125","infoHashBuffer":{"type":"Buffer","data":[67,121,123,149,241,141,128,110,112,178,85,238,69,187,255,69,65,168,17,37]},"announce":[],"urlList":[]}}